<svg width="719" height="169" viewBox="0 0 719 169" fill="none" xmlns="http://www.w3.org/2000/svg">
<path d="M0.654029 0.00982705H21.654V78.8898C21.5715 87.857 24.8707 96.526 30.894 103.17C35.464 108.09 41.954 112.24 50.894 112.24C57.0414 112.292 63.1148 110.898 68.624 108.17C73.8995 105.451 78.3167 101.32 81.3835 96.239C84.4503 91.158 86.0464 85.3247 85.994 79.3898H108.814C108.848 89.814 105.547 99.975 99.394 108.39C90.534 120.39 75.234 134.72 52.674 134.19C42.7874 134.047 33.1427 131.111 24.854 125.72C9.29403 115.61 0.154029 98.05 0.154029 79.4998C-0.0359711 52.3898 -0.205971 -0.830173 0.654029 0.00982705Z" fill="black"/>
<path fill-rule="evenodd" clip-rule="evenodd" d="M622.37 0.0330477H536.11C535.09 -0.986952 555.96 21.9431 555.96 21.9431H622.37V0.0330477ZM555.28 133.523H532.69C532.69 132.153 532 66.4431 532 66.4431H621V89.033H555.28V133.523Z" fill="black"/>
<path d="M145.781 74.826C154.261 64.6081 162.346 59.4991 170.035 59.4991C173.986 59.4991 177.383 60.4999 180.227 62.5014C183.071 64.4501 185.336 67.6893 187.021 72.2188C188.18 75.379 188.759 80.2245 188.759 86.7558V117.646C188.759 122.228 189.128 125.336 189.865 126.969C190.445 128.285 191.366 129.312 192.63 130.05C193.947 130.787 196.344 131.156 199.82 131.156V134H164.031V131.156H165.532C168.903 131.156 171.247 130.656 172.563 129.655C173.933 128.601 174.881 127.074 175.408 125.073C175.618 124.283 175.724 121.807 175.724 117.646V88.0199C175.724 81.436 174.855 76.6694 173.117 73.7199C171.431 70.7178 168.561 69.2166 164.505 69.2166C158.237 69.2166 151.996 72.6401 145.781 79.4871V117.646C145.781 122.544 146.071 125.573 146.65 126.732C147.388 128.259 148.388 129.391 149.652 130.129C150.969 130.814 153.603 131.156 157.553 131.156V134H121.764V131.156H123.344C127.031 131.156 129.506 130.234 130.77 128.391C132.087 126.495 132.746 122.913 132.746 117.646V90.7849C132.746 82.0943 132.535 76.801 132.113 74.9049C131.745 73.0088 131.139 71.7184 130.296 71.0337C129.506 70.349 128.427 70.0066 127.057 70.0066C125.582 70.0066 123.818 70.4018 121.764 71.1918L120.579 68.3477L142.384 59.4991H145.781V74.826ZM223.995 21.6562C226.207 21.6562 228.077 22.4464 229.604 24.0265C231.184 25.5539 231.974 27.4236 231.974 29.6357C231.974 31.8478 231.184 33.7439 229.604 35.324C228.077 36.9041 226.207 37.694 223.995 37.694C221.783 37.694 219.887 36.9041 218.307 35.324C216.727 33.7439 215.937 31.8478 215.937 29.6357C215.937 27.4236 216.7 25.5539 218.228 24.0265C219.808 22.4464 221.73 21.6562 223.995 21.6562ZM230.552 59.4991V117.646C230.552 122.176 230.868 125.204 231.5 126.732C232.185 128.206 233.159 129.312 234.424 130.05C235.74 130.787 238.11 131.156 241.534 131.156V134H206.377V131.156C209.906 131.156 212.276 130.814 213.488 130.129C214.699 129.444 215.647 128.312 216.332 126.732C217.069 125.152 217.438 122.123 217.438 117.646V89.7579C217.438 81.91 217.201 76.8274 216.727 74.51C216.358 72.8245 215.779 71.6657 214.989 71.0337C214.199 70.349 213.119 70.0066 211.749 70.0066C210.275 70.0066 208.484 70.4018 206.377 71.1918L205.271 68.3477L227.076 59.4991H230.552ZM314.692 59.4991V152.566C314.692 157.201 315.008 160.177 315.64 161.493C316.272 162.81 317.246 163.837 318.563 164.575C319.932 165.312 322.566 165.681 326.463 165.681V168.604H289.963V165.681H291.464C294.414 165.681 296.652 165.259 298.18 164.417C299.233 163.837 300.076 162.784 300.708 161.256C301.34 159.782 301.656 156.885 301.656 152.566V121.438C296.863 127.127 292.676 131.024 289.094 133.131C285.513 135.185 281.8 136.212 277.955 136.212C270.95 136.212 264.682 133.026 259.152 126.653C253.674 120.28 250.935 111.747 250.935 101.055C250.935 88.7829 254.57 78.8025 261.838 71.1128C269.106 63.3704 277.876 59.4991 288.146 59.4991C291.148 59.4991 293.913 59.9205 296.442 60.7632C298.97 61.6059 301.235 62.87 303.236 64.5555C306.291 63.0807 309.214 61.3952 312.005 59.4991H314.692ZM301.656 116.461V82.4894C301.656 78.5392 301.129 75.4317 300.076 73.1669C299.075 70.9021 297.258 68.9796 294.625 67.3995C291.991 65.8194 289.015 65.0295 285.697 65.0295C279.798 65.0295 274.742 67.5313 270.528 72.5349C266.315 77.5384 264.208 85.1228 264.208 95.2879C264.208 105.032 266.341 112.432 270.607 117.488C274.926 122.544 280.114 125.073 286.171 125.073C289.279 125.073 292.044 124.414 294.467 123.097C296.889 121.728 299.286 119.516 301.656 116.461ZM394.959 61.6323V105.48C394.959 113.854 395.144 118.989 395.513 120.885C395.934 122.729 396.566 124.019 397.409 124.757C398.304 125.494 399.331 125.863 400.49 125.863C402.122 125.863 403.966 125.415 406.02 124.52L407.126 127.285L385.479 136.212H381.924V120.885C375.709 127.627 370.969 131.867 367.703 133.605C364.438 135.343 360.988 136.212 357.354 136.212C353.298 136.212 349.769 135.053 346.767 132.736C343.818 130.366 341.764 127.337 340.605 123.65C339.446 119.964 338.867 114.749 338.867 108.008V75.695C338.867 72.2715 338.498 69.9014 337.761 68.5847C337.023 67.2679 335.917 66.2672 334.442 65.5825C333.02 64.8451 330.413 64.5028 326.621 64.5555V61.6323H351.981V110.062C351.981 116.803 353.14 121.228 355.458 123.334C357.828 125.441 360.672 126.495 363.99 126.495C366.255 126.495 368.809 125.784 371.653 124.362C374.55 122.939 377.974 120.227 381.924 116.224V75.221C381.924 71.1128 381.16 68.3476 379.633 66.9255C378.158 65.4507 375.05 64.6608 370.31 64.5555V61.6323H394.959ZM424.586 88.8889C424.533 99.6329 427.14 108.06 432.407 114.17C437.674 120.28 443.863 123.334 450.973 123.334C455.713 123.334 459.822 122.044 463.298 119.463C466.827 116.83 469.776 112.353 472.146 106.033L474.595 107.613C473.489 114.828 470.277 121.412 464.957 127.364C459.637 133.263 452.975 136.212 444.969 136.212C436.279 136.212 428.826 132.841 422.611 126.1C416.449 119.305 413.367 110.193 413.367 98.7639C413.367 86.3869 416.528 76.7484 422.848 69.8487C429.221 62.8964 437.2 59.4202 446.786 59.4202C454.897 59.4202 461.56 62.1062 466.774 67.4785C471.988 72.7982 474.595 79.9349 474.595 88.8889H424.586ZM424.586 84.3064H458.084C457.82 79.6715 457.267 76.4061 456.425 74.51C455.108 71.5605 453.133 69.243 450.499 67.5576C447.918 65.8722 445.206 65.0295 442.362 65.0295C437.99 65.0295 434.066 66.7412 430.59 70.1647C427.167 73.5356 425.165 78.2495 424.586 84.3064Z" fill="black"/>
<path d="M651.534 23.7363C653.747 23.7363 655.616 24.5264 657.144 26.1064C658.724 27.6338 659.514 29.5036 659.514 31.7157C659.514 33.9278 658.724 35.8239 657.144 37.404C655.616 38.9841 653.747 39.7741 651.534 39.7741C649.322 39.7741 647.426 38.9841 645.846 37.404C644.266 35.8239 643.476 33.9278 643.476 31.7157C643.476 29.5036 644.24 27.6338 645.767 26.1064C647.347 24.5264 649.27 23.7363 651.534 23.7363ZM658.092 61.5792V119.726C658.092 124.256 658.408 127.284 659.04 128.812C659.725 130.286 660.699 131.393 661.963 132.13C663.28 132.867 665.65 133.236 669.073 133.236V136.08H633.917V133.236C637.445 133.236 639.816 132.894 641.027 132.209C642.238 131.524 643.186 130.392 643.871 128.812C644.608 127.232 644.977 124.203 644.977 119.726V91.8378C644.977 83.99 644.74 78.9074 644.266 76.5899C643.897 74.9045 643.318 73.7458 642.528 73.1138C641.738 72.4291 640.658 72.0867 639.289 72.0867C637.814 72.0867 636.023 72.4817 633.917 73.2718L632.811 70.4276L654.616 61.5792H658.092ZM699.174 39.9321V63.7123H716.081V69.2426H699.174V116.171C699.174 120.859 699.832 124.019 701.149 125.652C702.518 127.284 704.256 128.101 706.363 128.101C708.101 128.101 709.787 127.574 711.419 126.521C713.052 125.415 714.316 123.808 715.212 121.701H718.293C716.449 126.863 713.842 130.76 710.471 133.394C707.101 135.975 703.624 137.265 700.043 137.265C697.62 137.265 695.25 136.607 692.933 135.29C690.615 133.921 688.903 131.998 687.797 129.523C686.691 126.995 686.138 123.123 686.138 117.909V69.2426H674.683V66.6354C677.579 65.4767 680.529 63.528 683.531 60.7892C686.586 57.9977 689.298 54.7059 691.668 50.9137C692.88 48.9122 694.565 45.2517 696.725 39.9321H699.174Z" fill="black"/>
</svg>
