<svg width="720" height="189" viewBox="0 0 720 189" fill="none" xmlns="http://www.w3.org/2000/svg">
<path d="M0.654029 14.0098H21.654V92.8898C21.5715 101.857 24.8707 110.526 30.894 117.17C35.464 122.09 41.954 126.24 50.894 126.24C57.0414 126.292 63.1148 124.898 68.624 122.17C73.8995 119.451 78.3167 115.32 81.3835 110.239C84.4503 105.158 86.0464 99.3247 85.994 93.3898H108.814C108.848 103.814 105.547 113.975 99.394 122.39C90.534 134.39 75.234 148.72 52.674 148.19C42.7874 148.047 33.1427 145.111 24.854 139.72C9.29403 129.61 0.154029 112.05 0.154029 93.4998C-0.0359711 66.3898 -0.205971 13.1698 0.654029 14.0098Z" fill="black"/>
<path fill-rule="evenodd" clip-rule="evenodd" d="M622.37 14.033H536.11C535.09 13.013 555.96 35.9431 555.96 35.9431H622.37V14.033ZM555.28 147.523H532.69C532.69 146.153 532 80.4431 532 80.4431H621V103.033H555.28V147.523Z" fill="black"/>
<path d="M145.781 88.8261C154.261 78.6082 162.346 73.4993 170.035 73.4993C173.986 73.4993 177.383 74.5 180.227 76.5015C183.071 78.4502 185.336 81.6894 187.021 86.2189C188.18 89.3791 188.759 94.2247 188.759 100.756V131.646C188.759 136.228 189.128 139.336 189.865 140.969C190.445 142.285 191.366 143.312 192.63 144.05C193.947 144.787 196.344 145.156 199.82 145.156V148H164.031V145.156H165.532C168.903 145.156 171.247 144.656 172.563 143.655C173.933 142.601 174.881 141.074 175.408 139.073C175.618 138.283 175.724 135.807 175.724 131.646V102.02C175.724 95.4361 174.855 90.6695 173.117 87.72C171.431 84.7179 168.561 83.2168 164.505 83.2168C158.237 83.2168 151.996 86.6403 145.781 93.4873V131.646C145.781 136.544 146.071 139.573 146.65 140.732C147.388 142.259 148.388 143.391 149.652 144.129C150.969 144.814 153.603 145.156 157.553 145.156V148H121.764V145.156H123.344C127.031 145.156 129.506 144.234 130.77 142.391C132.087 140.495 132.746 136.913 132.746 131.646V104.785C132.746 96.0944 132.535 90.8012 132.113 88.9051C131.745 87.009 131.139 85.7186 130.296 85.0339C129.506 84.3492 128.427 84.0068 127.057 84.0068C125.582 84.0068 123.818 84.4019 121.764 85.1919L120.579 82.3478L142.384 73.4993H145.781V88.8261ZM223.995 35.6564C226.207 35.6564 228.077 36.4465 229.604 38.0266C231.184 39.554 231.974 41.4237 231.974 43.6358C231.974 45.8479 231.184 47.744 229.604 49.3241C228.077 50.9042 226.207 51.6942 223.995 51.6942C221.783 51.6942 219.887 50.9042 218.307 49.3241C216.727 47.744 215.937 45.8479 215.937 43.6358C215.937 41.4237 216.7 39.554 218.228 38.0266C219.808 36.4465 221.73 35.6564 223.995 35.6564ZM230.552 73.4993V131.646C230.552 136.176 230.868 139.204 231.5 140.732C232.185 142.206 233.159 143.312 234.424 144.05C235.74 144.787 238.11 145.156 241.534 145.156V148H206.377V145.156C209.906 145.156 212.276 144.814 213.488 144.129C214.699 143.444 215.647 142.312 216.332 140.732C217.069 139.152 217.438 136.123 217.438 131.646V103.758C217.438 95.9101 217.201 90.8275 216.727 88.5101C216.358 86.8246 215.779 85.6659 214.989 85.0339C214.199 84.3492 213.119 84.0068 211.749 84.0068C210.275 84.0068 208.484 84.4019 206.377 85.1919L205.271 82.3478L227.076 73.4993H230.552ZM314.692 73.4993V166.566C314.692 171.201 315.008 174.177 315.64 175.493C316.272 176.81 317.246 177.837 318.563 178.575C319.932 179.312 322.566 179.681 326.463 179.681V182.604H289.963V179.681H291.464C294.414 179.681 296.652 179.259 298.18 178.417C299.233 177.837 300.076 176.784 300.708 175.256C301.34 173.782 301.656 170.885 301.656 166.566V135.438C296.863 141.127 292.676 145.024 289.094 147.131C285.513 149.185 281.8 150.212 277.955 150.212C270.95 150.212 264.682 147.026 259.152 140.653C253.674 134.28 250.935 125.747 250.935 115.055C250.935 102.783 254.57 92.8026 261.838 85.1129C269.106 77.3705 277.876 73.4993 288.146 73.4993C291.148 73.4993 293.913 73.9207 296.442 74.7634C298.97 75.6061 301.235 76.8701 303.236 78.5556C306.291 77.0808 309.214 75.3954 312.005 73.4993H314.692ZM301.656 130.461V96.4895C301.656 92.5393 301.129 89.4318 300.076 87.167C299.075 84.9022 297.258 82.9798 294.625 81.3997C291.991 79.8196 289.015 79.0296 285.697 79.0296C279.798 79.0296 274.742 81.5314 270.528 86.535C266.315 91.5385 264.208 99.1229 264.208 109.288C264.208 119.032 266.341 126.432 270.607 131.488C274.926 136.544 280.114 139.073 286.171 139.073C289.279 139.073 292.044 138.414 294.467 137.097C296.889 135.728 299.286 133.516 301.656 130.461ZM394.959 75.6324V119.48C394.959 127.854 395.144 132.989 395.513 134.885C395.934 136.729 396.566 138.019 397.409 138.757C398.304 139.494 399.331 139.863 400.49 139.863C402.122 139.863 403.966 139.415 406.02 138.52L407.126 141.285L385.479 150.212H381.924V134.885C375.709 141.627 370.969 145.867 367.703 147.605C364.438 149.343 360.988 150.212 357.354 150.212C353.298 150.212 349.769 149.053 346.767 146.736C343.818 144.366 341.764 141.337 340.605 137.65C339.446 133.964 338.867 128.749 338.867 122.008V89.6951C338.867 86.2716 338.498 83.9015 337.761 82.5848C337.023 81.268 335.917 80.2673 334.442 79.5826C333.02 78.8452 330.413 78.5029 326.621 78.5556V75.6324H351.981V124.062C351.981 130.803 353.14 135.228 355.458 137.334C357.828 139.441 360.672 140.495 363.99 140.495C366.255 140.495 368.809 139.784 371.653 138.362C374.55 136.939 377.974 134.227 381.924 130.224V89.2211C381.924 85.1129 381.16 82.3478 379.633 80.9257C378.158 79.4509 375.05 78.6609 370.31 78.5556V75.6324H394.959ZM424.586 102.889C424.533 113.633 427.14 122.06 432.407 128.17C437.674 134.28 443.863 137.334 450.973 137.334C455.713 137.334 459.822 136.044 463.298 133.463C466.827 130.83 469.776 126.353 472.146 120.033L474.595 121.613C473.489 128.828 470.277 135.412 464.957 141.364C459.637 147.263 452.975 150.212 444.969 150.212C436.279 150.212 428.826 146.841 422.611 140.1C416.449 133.305 413.367 124.193 413.367 112.764C413.367 100.387 416.528 90.7485 422.848 83.8488C429.221 76.8965 437.2 73.4203 446.786 73.4203C454.897 73.4203 461.56 76.1064 466.774 81.4787C471.988 86.7983 474.595 93.935 474.595 102.889H424.586ZM424.586 98.3065H458.084C457.82 93.6716 457.267 90.4062 456.425 88.5101C455.108 85.5606 453.133 83.2431 450.499 81.5577C447.918 79.8723 445.206 79.0296 442.362 79.0296C437.99 79.0296 434.066 80.7413 430.59 84.1648C427.167 87.5357 425.165 92.2496 424.586 98.3065Z" fill="black"/>
<path d="M651.534 37.7365C653.747 37.7365 655.616 38.5266 657.144 40.1066C658.724 41.634 659.514 43.5038 659.514 45.7159C659.514 47.928 658.724 49.8241 657.144 51.4042C655.616 52.9843 653.747 53.7743 651.534 53.7743C649.322 53.7743 647.426 52.9843 645.846 51.4042C644.266 49.8241 643.476 47.928 643.476 45.7159C643.476 43.5038 644.24 41.634 645.767 40.1066C647.347 38.5266 649.27 37.7365 651.534 37.7365ZM658.092 75.5794V133.726C658.092 138.256 658.408 141.284 659.04 142.812C659.725 144.286 660.699 145.393 661.963 146.13C663.28 146.867 665.65 147.236 669.073 147.236V150.08H633.917V147.236C637.445 147.236 639.816 146.894 641.027 146.209C642.238 145.524 643.186 144.392 643.871 142.812C644.608 141.232 644.977 138.203 644.977 133.726V105.838C644.977 97.9902 644.74 92.9076 644.266 90.5901C643.897 88.9047 643.318 87.746 642.528 87.114C641.738 86.4293 640.658 86.0869 639.289 86.0869C637.814 86.0869 636.023 86.4819 633.917 87.272L632.811 84.4278L654.616 75.5794H658.092ZM699.174 53.9323V77.7125H716.081V83.2428H699.174V130.171C699.174 134.859 699.832 138.019 701.149 139.652C702.518 141.284 704.256 142.101 706.363 142.101C708.101 142.101 709.787 141.574 711.419 140.521C713.052 139.415 714.316 137.808 715.212 135.701H718.293C716.449 140.863 713.842 144.76 710.471 147.394C707.101 149.975 703.624 151.265 700.043 151.265C697.62 151.265 695.25 150.607 692.933 149.29C690.615 147.921 688.903 145.998 687.797 143.523C686.691 140.995 686.138 137.123 686.138 131.909V83.2428H674.683V80.6356C677.579 79.4769 680.529 77.5282 683.531 74.7894C686.586 71.9979 689.298 68.7061 691.668 64.9139C692.88 62.9124 694.565 59.2519 696.725 53.9323H699.174Z" fill="black"/>
</svg>
